<svg width="1366" height="724" viewBox="0 0 1366 724" fill="none" xmlns="http://www.w3.org/2000/svg">
<path fill-rule="evenodd" clip-rule="evenodd" d="M1366 0H0V724H1366V0ZM163.768 120L143.896 85.44L163.864 52.8H140.248L125.944 77.856H119.032V52.8H96.376V120H119.032V95.712H125.368L138.232 120H163.768ZM210.582 103.392L237.558 52.8H215.67L201.846 81.12L188.502 52.8H164.598L190.326 100.224C189.238 101.568 188.086 102.528 186.87 103.104C185.718 103.68 184.31 103.968 182.646 103.968C180.854 103.968 178.55 103.584 175.734 102.816L170.454 119.136C174.87 120.928 179.222 121.824 183.51 121.824C189.078 121.824 194.166 120.256 198.774 117.12C203.446 113.984 207.382 109.408 210.582 103.392ZM290.84 55.872C286.233 53.824 280.824 52.8 274.616 52.8H242.265V120H264.921V103.488H274.616C280.824 103.488 286.233 102.464 290.84 100.416C295.448 98.368 299 95.424 301.496 91.584C303.993 87.744 305.24 83.264 305.24 78.144C305.24 73.024 303.993 68.544 301.496 64.704C299 60.864 295.448 57.92 290.84 55.872ZM280.089 84C278.552 85.344 276.249 86.016 273.177 86.016H264.921V70.272H273.177C276.249 70.272 278.552 70.976 280.089 72.384C281.625 73.728 282.392 75.648 282.392 78.144C282.392 80.64 281.625 82.592 280.089 84ZM327.638 117.12C333.334 120.064 339.734 121.536 346.838 121.536C353.366 121.536 359.19 120.384 364.31 118.08C369.43 115.776 373.654 112.448 376.982 108.096L362.678 95.328C358.518 100.576 353.622 103.2 347.99 103.2C343.254 103.2 339.446 101.696 336.566 98.688C333.686 95.616 332.246 91.52 332.246 86.4C332.246 81.28 333.686 77.216 336.566 74.208C339.446 71.136 343.254 69.6 347.99 69.6C353.622 69.6 358.518 72.224 362.678 77.472L376.982 64.704C373.654 60.352 369.43 57.024 364.31 54.72C359.19 52.416 353.366 51.264 346.838 51.264C339.734 51.264 333.334 52.768 327.638 55.776C321.942 58.72 317.462 62.88 314.198 68.256C310.998 73.568 309.398 79.616 309.398 86.4C309.398 93.184 310.998 99.264 314.198 104.64C317.462 109.952 321.942 114.112 327.638 117.12ZM161.944 210V142.8H96.952V210H119.224V160.368H139.672V210H161.944ZM188.515 207.024C194.275 210.032 200.771 211.536 208.003 211.536C215.235 211.536 221.731 210.032 227.491 207.024C233.251 204.016 237.763 199.856 241.027 194.544C244.291 189.168 245.923 183.12 245.923 176.4C245.923 169.68 244.291 163.664 241.027 158.352C237.763 152.976 233.251 148.784 227.491 145.776C221.731 142.768 215.235 141.264 208.003 141.264C200.771 141.264 194.275 142.768 188.515 145.776C182.755 148.784 178.243 152.976 174.979 158.352C171.715 163.664 170.083 169.68 170.083 176.4C170.083 183.12 171.715 189.168 174.979 194.544C178.243 199.856 182.755 204.016 188.515 207.024ZM215.587 191.184C213.347 192.528 210.819 193.2 208.003 193.2C205.187 193.2 202.627 192.528 200.323 191.184C198.083 189.776 196.291 187.824 194.947 185.328C193.603 182.768 192.931 179.792 192.931 176.4C192.931 173.008 193.603 170.064 194.947 167.568C196.291 165.008 198.083 163.056 200.323 161.712C202.627 160.304 205.187 159.6 208.003 159.6C210.819 159.6 213.347 160.304 215.587 161.712C217.891 163.056 219.715 165.008 221.059 167.568C222.403 170.064 223.075 173.008 223.075 176.4C223.075 179.792 222.403 182.768 221.059 185.328C219.715 187.824 217.891 189.776 215.587 191.184ZM314.365 180.816C312.381 178.128 309.501 176.112 305.725 174.768C308.477 173.232 310.589 171.248 312.061 168.816C313.597 166.384 314.365 163.568 314.365 160.368C314.365 154.8 312.061 150.48 307.453 147.408C302.909 144.336 296.477 142.8 288.157 142.8H254.077V210H289.981C298.685 210 305.405 208.272 310.141 204.816C314.941 201.296 317.341 196.528 317.341 190.512C317.341 186.672 316.349 183.44 314.365 180.816ZM285.949 168.624H276.349V158.64H285.949C289.661 158.64 291.517 160.336 291.517 163.728C291.517 166.992 289.661 168.624 285.949 168.624ZM294.493 188.784C294.493 192.368 292.637 194.16 288.925 194.16H276.349V183.6H288.925C292.637 183.6 294.493 185.328 294.493 188.784ZM381.005 169.104C376.461 165.328 369.997 163.44 361.613 163.44H347.693V142.8H325.421V210H358.733C367.757 210 374.861 207.92 380.045 203.76C385.229 199.536 387.821 193.488 387.821 185.616C387.821 178.32 385.549 172.816 381.005 169.104ZM362.861 192.048C361.389 193.456 359.501 194.16 357.197 194.16H347.693V179.28H357.197C362.445 179.28 365.069 181.52 365.069 186C365.069 188.56 364.333 190.576 362.861 192.048ZM416.237 142.8H393.965V210H416.237V142.8ZM428.171 210H521.963V142.8H499.691V192.432H486.251V142.8H463.979V192.432H450.443V142.8H428.171V210ZM589.699 210V192.912H556.099V184.08H584.515V167.76H556.099V159.888H588.451V142.8H533.827V210H589.699ZM642.473 210H665.129V142.8H642.473V166.608H621.545V142.8H598.889V210H621.545V185.232H642.473V210ZM699.349 142.8H677.077V210H698.485L721.525 175.152V210H743.797V142.8H722.485L699.349 177.744V142.8ZM792.405 210H814.677V142.8H783.189C776.853 142.8 771.349 143.856 766.677 145.968C762.005 148.08 758.389 151.088 755.829 154.992C753.333 158.896 752.085 163.504 752.085 168.816C752.085 173.936 753.237 178.384 755.541 182.16C757.909 185.872 761.269 188.752 765.621 190.8L752.373 210H776.085L786.357 194.064H792.405V210ZM774.933 168.432C774.933 162.992 777.813 160.272 783.573 160.272H792.405V176.976H783.573C777.813 176.976 774.933 174.128 774.933 168.432ZM163.768 300L143.896 265.44L163.864 232.8H140.248L125.944 257.856H119.032V232.8H96.376V300H119.032V275.712H125.368L138.232 300H163.768ZM228.771 270.816C226.787 268.128 223.907 266.112 220.131 264.768C222.883 263.232 224.995 261.248 226.467 258.816C228.003 256.384 228.771 253.568 228.771 250.368C228.771 244.8 226.467 240.48 221.859 237.408C217.315 234.336 210.883 232.8 202.563 232.8H168.483V300H204.387C213.091 300 219.811 298.272 224.547 294.816C229.347 291.296 231.747 286.528 231.747 280.512C231.747 276.672 230.755 273.44 228.771 270.816ZM200.355 258.624H190.755V248.64H200.355C204.067 248.64 205.923 250.336 205.923 253.728C205.923 256.992 204.067 258.624 200.355 258.624ZM208.899 278.784C208.899 282.368 207.043 284.16 203.331 284.16H190.755V273.6H203.331C207.043 273.6 208.899 275.328 208.899 278.784ZM261.715 288.288H287.251L291.763 300H315.187L285.811 232.8H263.539L234.163 300H257.203L261.715 288.288ZM274.483 255.072L281.011 271.968H267.955L274.483 255.072ZM387.895 300V232.8H331.159L330.295 259.008C330.103 264.192 329.783 268.384 329.335 271.584C328.887 274.784 328.023 277.344 326.743 279.264C325.527 281.184 323.735 282.144 321.367 282.144C320.535 282.144 319.703 282.048 318.871 281.856L317.719 300C321.111 300.832 324.311 301.248 327.319 301.248C333.271 301.248 337.847 299.552 341.047 296.16C344.247 292.704 346.487 287.904 347.767 281.76C349.047 275.616 349.815 267.744 350.071 258.144L350.263 250.368H365.623V300H387.895ZM422.037 232.8H399.765V300H421.173L444.212 265.152V300H466.485V232.8H445.173L422.037 267.744V232.8ZM555.605 287.136C561.493 281.952 564.437 274.944 564.437 266.112C564.437 257.344 561.493 250.432 555.605 245.376C549.781 240.256 541.205 237.28 529.877 236.448V229.44H509.141V236.448C497.813 237.408 489.205 240.416 483.317 245.472C477.493 250.464 474.581 257.344 474.581 266.112C474.581 274.88 477.493 281.792 483.317 286.848C489.205 291.904 497.813 294.912 509.141 295.872V303.456H529.877V295.968C541.141 295.2 549.717 292.256 555.605 287.136ZM539.573 274.464C537.589 276.384 534.357 277.664 529.877 278.304V253.92C534.293 254.56 537.493 255.84 539.477 257.76C541.525 259.68 542.549 262.432 542.549 266.016C542.549 269.664 541.557 272.48 539.573 274.464ZM499.541 274.272C497.493 272.352 496.469 269.632 496.469 266.112C496.469 262.464 497.429 259.712 499.349 257.856C501.333 255.936 504.597 254.656 509.141 254.016V278.208C504.853 277.504 501.653 276.192 499.541 274.272ZM594.818 232.8H572.546V300H593.954L616.994 265.152V300H639.266V232.8H617.954L594.818 267.744V232.8ZM716.361 297.118L698.146 265.44L718.114 232.8H694.498L680.194 257.856H673.282V232.8H650.626V300H673.282V275.712H679.618L692.482 300H715.101H718.018H738.14L742.653 288.288H768.188L772.7 300H796.125L766.749 232.8H744.477L716.361 297.118ZM755.42 255.072L761.948 271.968H748.893L755.42 255.072ZM877.015 313.152V282.432H868.183V232.8H845.911V282.432H824.599V232.8H802.327V300H856.279V313.152H877.015ZM906.912 232.8H884.639V300H906.048L929.087 265.152V300H951.36V232.8H930.048L906.912 267.744V232.8ZM119.224 322.8H96.952V390H118.36L141.4 355.152V390H163.672V322.8H142.36L119.224 357.744V322.8ZM263.718 359.376L263.91 390H284.55L284.358 322.8H265.734L244.422 358.608L222.533 322.8H203.91V390H224.55V360.432L239.141 383.952H249.125L263.718 359.376ZM315.759 378.288H341.295L345.807 390H369.231L339.855 322.8H317.583L288.207 390H311.247L315.759 378.288ZM328.527 345.072L335.055 361.968H321.999L328.527 345.072ZM395.119 373.392L400.207 367.728L417.007 390H443.215L414.991 352.368L441.871 322.8H417.199L395.119 347.184V322.8H372.847V390H395.119V373.392ZM502.125 390V372.912H468.525V364.08H496.941V347.76H468.525V339.888H500.877V322.8H446.253V390H502.125ZM518.911 383.184C524.671 388.752 532.703 391.536 543.007 391.536C553.311 391.536 561.343 388.752 567.103 383.184C572.863 377.616 575.743 369.808 575.743 359.76V322.8H553.471V359.088C553.471 364.016 552.575 367.6 550.783 369.84C549.055 372.08 546.527 373.2 543.199 373.2C539.871 373.2 537.311 372.08 535.519 369.84C533.791 367.6 532.927 364.016 532.927 359.088V322.8H510.271V359.76C510.271 369.808 513.151 377.616 518.911 383.184ZM634.704 325.872C630.096 323.824 624.688 322.8 618.48 322.8H586.128V390H608.784V373.488H618.48C624.688 373.488 630.096 372.464 634.704 370.416C639.312 368.368 642.864 365.424 645.36 361.584C647.856 357.744 649.104 353.264 649.104 348.144C649.104 343.024 647.856 338.544 645.36 334.704C642.864 330.864 639.312 327.92 634.704 325.872ZM623.952 354C622.416 355.344 620.112 356.016 617.04 356.016H608.784V340.272H617.04C620.112 340.272 622.416 340.976 623.952 342.384C625.488 343.728 626.256 345.648 626.256 348.144C626.256 350.64 625.488 352.592 623.952 354ZM697.197 387.504C701.869 389.808 707.117 390.96 712.941 390.96C718.829 390.96 724.077 389.808 728.685 387.504C733.357 385.136 736.973 381.904 739.533 377.808C742.157 373.648 743.469 368.944 743.469 363.696C743.469 358.448 742.157 353.776 739.533 349.68C736.973 345.52 733.357 342.288 728.685 339.984C724.077 337.68 718.829 336.528 712.941 336.528C707.117 336.528 701.869 337.68 697.197 339.984C692.589 342.288 688.973 345.52 686.349 349.68C683.725 353.776 682.413 358.448 682.413 363.696C682.413 368.944 683.725 373.648 686.349 377.808C688.973 381.904 692.589 385.136 697.197 387.504ZM719.085 371.376C717.485 373.168 715.437 374.064 712.941 374.064C710.445 374.064 708.397 373.168 706.797 371.376C705.197 369.52 704.397 366.96 704.397 363.696C704.397 360.432 705.197 357.904 706.797 356.112C708.397 354.32 710.445 353.424 712.941 353.424C715.437 353.424 717.485 354.32 719.085 356.112C720.685 357.904 721.485 360.432 721.485 363.696C721.485 366.96 720.685 369.52 719.085 371.376ZM782.003 354.384H798.035V337.488H744.371V354.384H760.403V390H782.003V354.384ZM116.728 468.288H142.264L146.776 480H170.2L140.824 412.8H118.552L89.176 480H112.216L116.728 468.288ZM129.496 435.072L136.024 451.968H122.968L129.496 435.072ZM240.056 480V412.8H217.976V443.328L192.44 412.8H173.816V480H195.896V449.472L221.432 480H240.056ZM317.212 480V412.8H295.132V443.328L269.596 412.8H250.972V480H273.052V449.472L298.588 480H317.212ZM348.384 468.288H373.92L378.432 480H401.856L372.48 412.8H350.208L320.832 480H343.872L348.384 468.288ZM361.152 435.072L367.68 451.968H354.624L361.152 435.072ZM156.28 539.376L156.472 570H177.112L176.92 502.8H158.296L136.984 538.608L115.096 502.8H96.472V570H117.112V540.432L131.704 563.952H141.688L156.28 539.376ZM208.322 558.288H233.858L238.37 570H261.794L232.418 502.8H210.146L180.77 570H203.81L208.322 558.288ZM221.09 525.072L227.618 541.968H214.562L221.09 525.072ZM256.947 520.368H276.626V570H299.282V520.368H318.963V510.572L344.092 570H366.364L394.78 502.8H372.508L356.092 542.064L340.06 502.8H318.963H315.676H256.947V520.368ZM452.906 570V552.912H419.306V544.08H447.722V527.76H419.306V519.888H451.658V502.8H397.035V570H452.906ZM501.095 570V545.616L526.439 502.8H504.552L490.728 526.032L477 502.8H453.095L478.439 545.328V570H501.095ZM585.188 570V552.912H551.588V544.08H580.004V527.76H551.588V519.888H583.94V502.8H529.316V570H585.188ZM636.364 570L664.78 502.8H642.508L626.092 542.064L610.06 502.8H585.676L614.092 570H636.364ZM680.341 570L684.853 558.288H710.389L714.901 570H738.325L708.949 502.8H686.677L657.301 570H680.341ZM697.621 525.072L704.149 541.968H691.093L697.621 525.072ZM161.944 660V592.8H96.952V660H119.224V610.368H139.672V660H161.944ZM184.291 657.504C188.963 659.808 194.211 660.96 200.035 660.96C205.923 660.96 211.171 659.808 215.779 657.504C220.451 655.136 224.067 651.904 226.627 647.808C229.251 643.648 230.563 638.944 230.563 633.696C230.563 628.448 229.251 623.776 226.627 619.68C224.067 615.52 220.451 612.288 215.779 609.984C211.171 607.68 205.923 606.528 200.035 606.528C194.211 606.528 188.963 607.68 184.291 609.984C179.683 612.288 176.067 615.52 173.443 619.68C170.819 623.776 169.507 628.448 169.507 633.696C169.507 638.944 170.819 643.648 173.443 647.808C176.067 651.904 179.683 655.136 184.291 657.504ZM206.179 641.376C204.579 643.168 202.531 644.064 200.035 644.064C197.539 644.064 195.491 643.168 193.891 641.376C192.291 639.52 191.491 636.96 191.491 633.696C191.491 630.432 192.291 627.904 193.891 626.112C195.491 624.32 197.539 623.424 200.035 623.424C202.531 623.424 204.579 624.32 206.179 626.112C207.779 627.904 208.579 630.432 208.579 633.696C208.579 636.96 207.779 639.52 206.179 641.376ZM292.791 660V607.488H242.678L241.911 630.336C241.719 634.752 241.207 637.92 240.375 639.84C239.542 641.696 237.814 642.624 235.191 642.624C234.743 642.624 234.006 642.56 232.983 642.432L232.119 660C235.958 660.96 239.318 661.44 242.198 661.44C246.807 661.44 250.422 660.288 253.047 657.984C255.734 655.616 257.655 652.256 258.807 647.904C259.958 643.552 260.662 637.984 260.918 631.2L261.207 624.384H271.094V660H292.791ZM336.69 624.384H352.722V607.488H299.058V624.384H315.09V660H336.69V624.384ZM402.451 612.768C397.587 608.608 390.547 606.528 381.331 606.528C377.107 606.528 372.851 607.072 368.563 608.16C364.339 609.184 360.723 610.624 357.715 612.48L364.627 626.784C366.355 625.504 368.435 624.512 370.867 623.808C373.299 623.04 375.699 622.656 378.067 622.656C383.955 622.656 387.251 624.704 387.955 628.8H379.219C371.155 628.8 365.139 630.144 361.171 632.832C357.203 635.52 355.219 639.456 355.219 644.64C355.219 647.712 355.955 650.496 357.427 652.992C358.963 655.424 361.171 657.376 364.051 658.848C366.995 660.256 370.547 660.96 374.707 660.96C382.131 660.96 387.091 658.336 389.587 653.088V660H409.747V631.776C409.747 623.2 407.315 616.864 402.451 612.768ZM385.363 646.656C384.147 647.488 382.771 647.904 381.235 647.904C379.635 647.904 378.355 647.52 377.395 646.752C376.499 645.92 376.051 644.896 376.051 643.68C376.051 640.736 378.259 639.264 382.675 639.264H388.051V642.912C387.475 644.576 386.579 645.824 385.363 646.656ZM471.868 644.64C471.868 638.688 468.988 634.624 463.228 632.448C465.532 631.232 467.292 629.664 468.508 627.744C469.724 625.824 470.332 623.648 470.332 621.216C470.332 616.864 468.38 613.504 464.476 611.136C460.572 608.704 455.1 607.488 448.06 607.488H418.588V660H449.596C456.892 660 462.428 658.656 466.204 655.968C469.98 653.216 471.868 649.44 471.868 644.64ZM446.14 628.224H437.596V620.928H446.14C447.804 620.928 448.988 621.216 449.692 621.792C450.46 622.368 450.844 623.264 450.844 624.48C450.844 626.976 449.276 628.224 446.14 628.224ZM452.38 642.624C452.38 645.248 450.812 646.56 447.676 646.56H437.596V638.88H447.676C450.812 638.88 452.38 640.128 452.38 642.624ZM522.451 612.768C517.587 608.608 510.547 606.528 501.331 606.528C497.107 606.528 492.851 607.072 488.563 608.16C484.339 609.184 480.723 610.624 477.715 612.48L484.627 626.784C486.355 625.504 488.435 624.512 490.867 623.808C493.299 623.04 495.699 622.656 498.067 622.656C503.955 622.656 507.251 624.704 507.955 628.8H499.219C491.155 628.8 485.139 630.144 481.171 632.832C477.203 635.52 475.219 639.456 475.219 644.64C475.219 647.712 475.955 650.496 477.427 652.992C478.963 655.424 481.171 657.376 484.051 658.848C486.995 660.256 490.547 660.96 494.707 660.96C502.131 660.96 507.091 658.336 509.587 653.088V660H529.747V631.776C529.747 623.2 527.315 616.864 522.451 612.768ZM505.363 646.656C504.147 647.488 502.771 647.904 501.235 647.904C499.635 647.904 498.355 647.52 497.395 646.752C496.499 645.92 496.051 644.896 496.051 643.68C496.051 640.736 498.259 639.264 502.675 639.264H508.051V642.912C507.475 644.576 506.579 645.824 505.363 646.656Z" fill="#100C11"/>
</svg>
