<svg width="1366" height="724" viewBox="0 0 1366 724" fill="none" xmlns="http://www.w3.org/2000/svg">
<path fill-rule="evenodd" clip-rule="evenodd" d="M1366 0H0V724H1366V0ZM73.552 117.992C72.2293 116.115 70.3733 114.685 67.984 113.704C69.8187 112.723 71.248 111.421 72.272 109.8C73.296 108.179 73.808 106.365 73.808 104.36C73.808 101.629 72.8053 99.2613 70.8 97.256C68.8373 95.208 66.192 93.6507 62.864 92.584C59.5787 91.5173 55.9947 90.984 52.112 90.984C46.3093 90.984 40.9333 92.1147 35.984 94.376L40.4 105.576C42.2773 104.637 44.2613 103.912 46.352 103.4C48.4427 102.888 50.384 102.632 52.176 102.632C54.096 102.632 55.632 102.931 56.784 103.528C57.9787 104.125 58.576 104.979 58.576 106.088C58.576 106.941 58.2347 107.603 57.552 108.072C56.912 108.541 55.952 108.776 54.672 108.776H43.856V119.656H55.952C58.896 119.656 60.368 120.552 60.368 122.344C60.368 123.667 59.6 124.669 58.064 125.352C56.5707 126.035 54.608 126.376 52.176 126.376C50.1707 126.376 48.0373 126.163 45.776 125.736C43.5147 125.267 41.3387 124.605 39.248 123.752L34.832 134.184C40.72 136.787 46.928 138.088 53.456 138.088C57.552 138.088 61.264 137.555 64.592 136.488C67.9627 135.379 70.6293 133.8 72.592 131.752C74.5973 129.661 75.6 127.208 75.6 124.392C75.6 122.003 74.9173 119.869 73.552 117.992ZM92.552 137L95.56 129.192H112.584L115.592 137H131.208L111.624 92.2H96.776L77.192 137H92.552ZM104.072 107.048L108.424 118.312H99.72L104.072 107.048ZM178.671 137V92.2H135.343V137H150.191V103.912H163.823V137H178.671ZM201.441 92.2H186.593V137H200.865L216.225 113.768V137H231.073V92.2H216.865L201.441 115.496V92.2ZM301.559 137V92.2H286.711V125.288H277.75V92.2H262.902V125.288H253.878V92.2H239.031V137H301.559ZM324.316 92.2H309.468V137H323.74L339.1 113.768V137H353.948V92.2H339.74L324.316 115.496V92.2ZM386.93 103.912H400.049V92.2H358.961V103.912H372.082V137H386.93V103.912ZM442.279 137V125.608H419.879V119.72H438.823V108.84H419.879V103.592H441.447V92.2H405.03V137H442.279ZM458.134 135.08C461.931 137.043 466.198 138.024 470.934 138.024C475.285 138.024 479.168 137.256 482.582 135.72C485.995 134.184 488.811 131.965 491.03 129.064L481.493 120.552C478.72 124.051 475.456 125.8 471.702 125.8C468.544 125.8 466.005 124.797 464.086 122.792C462.165 120.744 461.206 118.013 461.206 114.6C461.206 111.187 462.165 108.477 464.086 106.472C466.005 104.424 468.544 103.4 471.702 103.4C475.456 103.4 478.72 105.149 481.493 108.648L491.03 100.136C488.811 97.2347 485.995 95.016 482.582 93.48C479.168 91.944 475.285 91.176 470.934 91.176C466.198 91.176 461.931 92.1787 458.134 94.184C454.336 96.1467 451.349 98.92 449.173 102.504C447.04 106.045 445.974 110.077 445.974 114.6C445.974 119.123 447.04 123.176 449.173 126.76C451.349 130.301 454.336 133.075 458.134 135.08ZM532.649 109.736C529.62 107.219 525.31 105.96 519.721 105.96H510.441V92.2H495.593V137H517.801C523.817 137 528.553 135.613 532.009 132.84C535.465 130.024 537.193 125.992 537.193 120.744C537.193 115.88 535.678 112.211 532.649 109.736ZM520.553 125.032C519.572 125.971 518.313 126.44 516.777 126.44H510.441V116.52H516.777C520.276 116.52 522.025 118.013 522.025 121C522.025 122.707 521.534 124.051 520.553 125.032ZM590.649 137H605.753V92.2H590.649V108.072H576.697V92.2H561.593V137H576.697V120.488H590.649V137ZM625.302 137L628.31 129.192H645.334L648.342 137H663.958L644.374 92.2H629.526L609.942 137H625.302ZM636.822 107.048L641.174 118.312H632.47L636.822 107.048ZM77.84 206.584L77.968 227H91.728L91.6 182.2H79.184L64.976 206.072L50.384 182.2H37.968V227H51.728V207.288L61.456 222.968H68.112L77.84 206.584ZM111.177 227L114.185 219.192H131.209L134.217 227H149.833L130.249 182.2H115.401L95.817 227H111.177ZM122.697 197.048L127.049 208.312H118.345L122.697 197.048ZM163.071 225.08C166.868 227.043 171.135 228.024 175.871 228.024C180.223 228.024 184.106 227.256 187.519 225.72C190.932 224.184 193.748 221.965 195.967 219.064L186.431 210.552C183.658 214.051 180.394 215.8 176.639 215.8C173.482 215.8 170.943 214.797 169.023 212.792C167.103 210.744 166.143 208.013 166.143 204.6C166.143 201.187 167.103 198.477 169.023 196.472C170.943 194.424 173.482 193.4 176.639 193.4C180.394 193.4 183.658 195.149 186.431 198.648L195.967 190.136C193.748 187.235 190.932 185.016 187.519 183.48C184.106 181.944 180.223 181.176 175.871 181.176C171.135 181.176 166.868 182.179 163.071 184.184C159.274 186.147 156.287 188.92 154.111 192.504C151.978 196.045 150.911 200.077 150.911 204.6C150.911 209.123 151.978 213.176 154.111 216.76C156.287 220.301 159.274 223.075 163.071 225.08ZM225.242 193.912H238.362V182.2H197.274V193.912H210.394V227H225.242V193.912ZM280.591 227V215.608H258.191V209.72H277.135V198.84H258.191V193.592H279.759V182.2H243.343V227H280.591ZM319.102 184.248C316.03 182.883 312.425 182.2 308.286 182.2H286.718V227H301.822V215.992H308.286C312.425 215.992 316.03 215.309 319.102 213.944C322.174 212.579 324.542 210.616 326.206 208.056C327.87 205.496 328.702 202.509 328.702 199.096C328.702 195.683 327.87 192.696 326.206 190.136C324.542 187.576 322.174 185.613 319.102 184.248ZM311.934 203C310.91 203.896 309.374 204.344 307.326 204.344H301.822V193.848H307.326C309.374 193.848 310.91 194.317 311.934 195.256C312.958 196.152 313.47 197.432 313.47 199.096C313.47 200.76 312.958 202.061 311.934 203ZM351.393 203.064H332.193V213.944H351.393V203.064ZM402.762 227L389.514 203.96L402.826 182.2H387.082L377.546 198.904H372.938V182.2H357.834V227H372.938V210.808H377.162L385.738 227H402.762ZM436.02 227H450.867V182.2H413.043L412.467 199.672C412.34 203.128 412.126 205.923 411.828 208.056C411.529 210.189 410.953 211.896 410.099 213.176C409.289 214.456 408.094 215.096 406.516 215.096C405.961 215.096 405.406 215.032 404.852 214.904L404.083 227C406.345 227.555 408.478 227.832 410.483 227.832C414.452 227.832 417.502 226.701 419.635 224.44C421.769 222.136 423.262 218.936 424.116 214.84C424.969 210.744 425.481 205.496 425.651 199.096L425.78 193.912H436.02V227ZM473.372 219.192H490.397L493.405 227H509.021L489.436 182.2H474.589L455.004 227H470.365L473.372 219.192ZM481.884 197.048L486.237 208.312H477.533L481.884 197.048ZM522.258 225.08C526.056 227.043 530.323 228.024 535.058 228.024C539.411 228.024 543.293 227.256 546.706 225.72C550.12 224.184 552.936 221.965 555.154 219.064L545.619 210.552C542.845 214.051 539.581 215.8 535.826 215.8C532.669 215.8 530.13 214.797 528.211 212.792C526.291 210.744 525.331 208.013 525.331 204.6C525.331 201.187 526.291 198.477 528.211 196.472C530.13 194.424 532.669 193.4 535.826 193.4C539.581 193.4 542.845 195.149 545.619 198.648L555.154 190.136C552.936 187.235 550.12 185.016 546.706 183.48C543.293 181.944 539.411 181.176 535.058 181.176C530.323 181.176 526.056 182.179 522.258 184.184C518.461 186.147 515.474 188.92 513.299 192.504C511.165 196.045 510.099 200.077 510.099 204.6C510.099 209.123 511.165 213.176 513.299 216.76C515.474 220.301 518.461 223.075 522.258 225.08ZM568.508 225.08C572.306 227.043 576.573 228.024 581.308 228.024C585.661 228.024 589.543 227.256 592.956 225.72C596.37 224.184 599.186 221.965 601.404 219.064L591.869 210.552C589.095 214.051 585.831 215.8 582.076 215.8C578.919 215.8 576.38 214.797 574.461 212.792C572.541 210.744 571.581 208.013 571.581 204.6C571.581 201.187 572.541 198.477 574.461 196.472C576.38 194.424 578.919 193.4 582.076 193.4C585.831 193.4 589.095 195.149 591.869 198.648L601.404 190.136C599.186 187.235 596.37 185.016 592.956 183.48C589.543 181.944 585.661 181.176 581.308 181.176C576.573 181.176 572.306 182.179 568.508 184.184C564.711 186.147 561.724 188.92 559.549 192.504C557.415 196.045 556.349 200.077 556.349 204.6C556.349 209.123 557.415 213.176 559.549 216.76C561.724 220.301 564.711 223.075 568.508 225.08ZM44.432 286.664L35.6 299.464L44.432 312.264H57.232L48.72 299.464L57.232 286.664H44.432ZM61.392 286.664L52.56 299.464L61.392 312.264H74.192L65.68 299.464L74.192 286.664H61.392ZM123.637 317L110.389 293.96L123.701 272.2H107.957L98.421 288.904H93.813V272.2H78.709V317H93.813V300.808H98.037L106.613 317H123.637ZM154.846 305.928L172.831 272.2H158.238L149.023 291.08L140.126 272.2H124.19L141.342 303.816C140.617 304.712 139.849 305.352 139.038 305.736C138.271 306.12 137.332 306.312 136.223 306.312C135.028 306.312 133.492 306.056 131.615 305.544L128.094 316.424C131.038 317.619 133.94 318.216 136.799 318.216C140.51 318.216 143.902 317.171 146.975 315.08C150.089 312.989 152.713 309.939 154.846 305.928ZM208.352 274.248C205.28 272.883 201.675 272.2 197.536 272.2H175.968V317H191.072V305.992H197.536C201.675 305.992 205.28 305.309 208.352 303.944C211.424 302.579 213.792 300.616 215.456 298.056C217.12 295.496 217.952 292.509 217.952 289.096C217.952 285.683 217.12 282.696 215.456 280.136C213.792 277.576 211.424 275.613 208.352 274.248ZM201.184 293C200.16 293.896 198.624 294.344 196.576 294.344H191.072V283.848H196.576C198.624 283.848 200.16 284.317 201.184 285.256C202.208 286.152 202.72 287.432 202.72 289.096C202.72 290.76 202.208 292.061 201.184 293ZM232.883 315.08C236.681 317.043 240.947 318.024 245.684 318.024C250.036 318.024 253.918 317.256 257.332 315.72C260.745 314.184 263.561 311.965 265.78 309.064L256.243 300.552C253.47 304.051 250.206 305.8 246.452 305.8C243.294 305.8 240.756 304.797 238.835 302.792C236.915 300.744 235.956 298.013 235.956 294.6C235.956 291.187 236.915 288.477 238.835 286.472C240.756 284.424 243.294 283.4 246.452 283.4C250.206 283.4 253.47 285.149 256.243 288.648L265.78 280.136C263.561 277.235 260.745 275.016 257.332 273.48C253.918 271.944 250.036 271.176 245.684 271.176C240.947 271.176 236.681 272.179 232.883 274.184C229.086 276.147 226.1 278.92 223.923 282.504C221.79 286.045 220.723 290.077 220.723 294.6C220.723 299.123 221.79 303.176 223.923 306.76C226.1 310.301 229.086 313.075 232.883 315.08ZM81.296 407V362.2H37.968V407H52.816V373.912H66.448V407H81.296ZM99.01 405.016C102.85 407.021 107.181 408.024 112.002 408.024C116.823 408.024 121.154 407.021 124.994 405.016C128.834 403.011 131.842 400.237 134.018 396.696C136.194 393.112 137.282 389.08 137.282 384.6C137.282 380.12 136.194 376.109 134.018 372.568C131.842 368.984 128.834 366.189 124.994 364.184C121.154 362.179 116.823 361.176 112.002 361.176C107.181 361.176 102.85 362.179 99.01 364.184C95.17 366.189 92.162 368.984 89.986 372.568C87.81 376.109 86.722 380.12 86.722 384.6C86.722 389.08 87.81 393.112 89.986 396.696C92.162 400.237 95.17 403.011 99.01 405.016ZM117.058 394.456C115.565 395.352 113.879 395.8 112.002 395.8C110.125 395.8 108.418 395.352 106.882 394.456C105.389 393.517 104.194 392.216 103.298 390.552C102.402 388.845 101.954 386.861 101.954 384.6C101.954 382.339 102.402 380.376 103.298 378.712C104.194 377.005 105.389 375.704 106.882 374.808C108.418 373.869 110.125 373.4 112.002 373.4C113.879 373.4 115.565 373.869 117.058 374.808C118.594 375.704 119.81 377.005 120.706 378.712C121.602 380.376 122.05 382.339 122.05 384.6C122.05 386.861 121.602 388.845 120.706 390.552C119.81 392.216 118.594 393.517 117.058 394.456ZM182.91 387.544C181.587 385.752 179.667 384.408 177.15 383.512C178.985 382.488 180.393 381.165 181.374 379.544C182.398 377.923 182.91 376.045 182.91 373.912C182.91 370.2 181.374 367.32 178.302 365.272C175.273 363.224 170.985 362.2 165.438 362.2H142.718V407H166.654C172.457 407 176.937 405.848 180.094 403.544C183.294 401.197 184.894 398.019 184.894 394.008C184.894 391.448 184.233 389.293 182.91 387.544ZM163.966 379.416H157.566V372.76H163.966C166.441 372.76 167.678 373.891 167.678 376.152C167.678 378.328 166.441 379.416 163.966 379.416ZM169.662 392.856C169.662 395.245 168.425 396.44 165.95 396.44H157.566V389.4H165.95C168.425 389.4 169.662 390.552 169.662 392.856ZM227.337 379.736C224.307 377.219 219.998 375.96 214.409 375.96H205.128V362.2H190.281V407H212.488C218.505 407 223.241 405.613 226.697 402.84C230.152 400.024 231.88 395.992 231.88 390.744C231.88 385.88 230.366 382.211 227.337 379.736ZM215.241 395.032C214.259 395.971 213.001 396.44 211.465 396.44H205.128V386.52H211.465C214.963 386.52 216.712 388.013 216.712 391C216.712 392.707 216.222 394.051 215.241 395.032ZM250.824 362.2H235.977V407H250.824V362.2ZM258.78 407H321.309V362.2H306.461V395.288H297.5V362.2H282.652V395.288H273.629V362.2H258.78V407ZM366.466 407V395.608H344.066V389.72H363.01V378.84H344.066V373.592H365.634V362.2H329.218V407H366.466ZM401.649 407H416.753V362.2H401.649V378.072H387.697V362.2H372.593V407H387.697V390.488H401.649V407ZM439.566 362.2H424.718V407H438.99L454.35 383.768V407H469.198V362.2H454.99L439.566 385.496V362.2ZM501.604 407H516.451V362.2H495.46C491.236 362.2 487.566 362.904 484.452 364.312C481.337 365.72 478.926 367.725 477.22 370.328C475.556 372.931 474.724 376.003 474.724 379.544C474.724 382.957 475.491 385.923 477.027 388.44C478.606 390.915 480.846 392.835 483.747 394.2L474.915 407H490.724L497.572 396.376H501.604V407ZM489.956 379.288C489.956 375.661 491.875 373.848 495.716 373.848H501.604V384.984H495.716C491.875 384.984 489.956 383.085 489.956 379.288ZM82.512 497L69.264 473.96L82.576 452.2H66.832L57.296 468.904H52.688V452.2H37.584V497H52.688V480.808H56.912L65.488 497H82.512ZM125.848 477.544C124.525 475.752 122.605 474.408 120.088 473.512C121.922 472.488 123.33 471.165 124.312 469.544C125.336 467.923 125.848 466.045 125.848 463.912C125.848 460.2 124.312 457.32 121.24 455.272C118.21 453.224 113.922 452.2 108.376 452.2H85.6555V497H109.591C115.394 497 119.874 495.848 123.032 493.544C126.231 491.197 127.831 488.019 127.831 484.008C127.831 481.448 127.17 479.293 125.848 477.544ZM106.904 469.416H100.504V462.76H106.904C109.378 462.76 110.616 463.891 110.616 466.152C110.616 468.328 109.378 469.416 106.904 469.416ZM112.6 482.856C112.6 485.245 111.362 486.44 108.887 486.44H100.504V479.4H108.887C111.362 479.4 112.6 480.552 112.6 482.856ZM147.81 489.192H164.834L167.842 497H183.458L163.874 452.2H149.026L129.442 497H144.802L147.81 489.192ZM156.322 467.048L160.674 478.312H151.97L156.322 467.048ZM231.93 497V452.2H194.106L193.53 469.672C193.402 473.128 193.189 475.923 192.89 478.056C192.591 480.189 192.015 481.896 191.162 483.176C190.351 484.456 189.157 485.096 187.578 485.096C187.023 485.096 186.469 485.032 185.914 484.904L185.146 497C187.407 497.555 189.541 497.832 191.546 497.832C195.514 497.832 198.565 496.701 200.698 494.44C202.831 492.136 204.325 488.936 205.178 484.84C206.031 480.744 206.543 475.496 206.714 469.096L206.842 463.912H217.082V497H231.93ZM254.691 452.2H239.843V497H254.115L269.475 473.768V497H284.323V452.2H270.115L254.691 475.496V452.2ZM343.737 488.424C347.662 484.968 349.625 480.296 349.625 474.408C349.625 468.563 347.662 463.955 343.737 460.584C339.854 457.171 334.137 455.187 326.585 454.632V449.96H312.76V454.632C305.208 455.272 299.47 457.277 295.544 460.648C291.662 463.976 289.72 468.563 289.72 474.408C289.72 480.253 291.662 484.861 295.544 488.232C299.47 491.603 305.208 493.608 312.76 494.248V499.304H326.585V494.312C334.094 493.8 339.811 491.837 343.737 488.424ZM333.048 479.976C331.726 481.256 329.571 482.109 326.585 482.536V466.28C329.529 466.707 331.662 467.56 332.984 468.84C334.35 470.12 335.033 471.955 335.033 474.344C335.033 476.776 334.371 478.653 333.048 479.976ZM306.361 479.848C304.995 478.568 304.312 476.755 304.312 474.408C304.312 471.976 304.953 470.141 306.233 468.904C307.555 467.624 309.731 466.771 312.76 466.344V482.472C309.902 482.003 307.768 481.128 306.361 479.848ZM369.879 452.2H355.03V497H369.302L384.663 473.768V497H399.51V452.2H385.302L369.879 475.496V452.2ZM450.907 495.078L438.764 473.96L452.076 452.2H436.332L426.796 468.904H422.188V452.2H407.084V497H422.188V480.808H426.412L434.988 497H450.067H452.012H465.427L468.435 489.192H485.459L488.467 497H504.083L484.499 452.2H469.651L450.907 495.078ZM476.947 467.048L481.299 478.312H472.595L476.947 467.048ZM558.01 505.768V485.288H552.122V452.2H537.274V485.288H523.066V452.2H508.218V497H544.186V505.768H558.01ZM577.941 452.2H563.093V497H577.365L592.725 473.768V497H607.573V452.2H593.365L577.941 475.496V452.2ZM630.378 452.2H615.531V497H629.802L645.162 473.768V497H660.01V452.2H645.802L630.378 475.496V452.2ZM692.659 479.464L684.148 492.264H696.948L705.779 479.464L696.948 466.664H684.148L692.659 479.464ZM709.62 479.464L701.107 492.264H713.907L722.74 479.464L713.907 466.664H701.107L709.62 479.464Z" fill="#100C11"/>
</svg>
