<svg width="1366" height="759" viewBox="0 0 1366 759" fill="none" xmlns="http://www.w3.org/2000/svg">
<path fill-rule="evenodd" clip-rule="evenodd" d="M1366 0H0V759H1366V0ZM93.9469 320L99.0707 306.7H138.971L146.021 325H161.045L130.721 375.95L96.5207 320H93.9469ZM67.4207 325H56.0207L101.921 220H136.721L180.435 320H188.27V220H217.37L257.27 267.7V220H291.77V325H282.022L323.55 420H348.912V347.45H318.162V325H308.827V220H337.927L377.827 267.7V220H412.327V320H415.062H420.169L463.884 220H498.684L544.584 325H531.413L489.127 425H483.659L441.373 525H406.573L364.287 425H359.46V446.7H308.91V459H353.31V484.5H308.91V498.3H361.41V525H274.11V420H287.21L282.086 406.7H242.186L237.062 420H269.616L230.016 486.9V525H194.616V486.45L155.016 420H161.139L160.871 377.15L138.071 415.55H122.471L99.6707 378.8V420H152.771V446.7H102.221V459H146.621V484.5H102.221V498.3H154.721V525H67.4207V425V420V325ZM193.411 421.769L213.816 456.3L232.441 425H199.136L245.036 320H258.488L222.77 277.3V325H193.135L193.411 421.769ZM384.312 420H400.273L425.323 481.35L450.973 420H452.213L415.062 332.144V347.45H384.312V420ZM379.045 320H343.327V277.3L379.045 320ZM506.057 320L500.934 306.7H461.034L453.984 325H450.069L473.077 381.35L498.727 320H506.057ZM119.021 254.8L129.221 281.2H108.821L119.021 254.8ZM480.984 254.8L491.184 281.2H470.784L480.984 254.8ZM262.136 354.8L272.336 381.2H251.936L262.136 354.8ZM517.137 506.7H557.037L564.087 525H600.687L554.787 420H519.987L474.087 525H510.087L517.137 506.7ZM537.087 454.8L547.287 481.2H526.887L537.087 454.8Z" fill="#3F3A49"/>
</svg>
